<svg width="29.000000" height="40.347809" viewBox="0 0 29 40.3478" fill="none" xmlns="http://www.w3.org/2000/svg">
	<desc>
			Created with Pixso.
	</desc>
	<defs>
		<clipPath id="clip2_171">
			<rect id="bulb" width="29.000000" height="40.347809" transform="matrix(1 0 0 -1 0 40.3478)" fill="white"/>
		</clipPath>
	</defs>
	<g clip-path="url(#clip2_171)">
		<path id="Vector" d="M25.1231 16.6505C27.0452 19.0192 28.2803 21.8655 28.6956 24.8823C29.512 30.8805 27.0503 35.6282 21.764 38.2508C20.132 39.0605 18.3546 39.4959 16.6742 39.8722C12.3702 40.8359 8.42938 40.0891 4.96045 37.6533C2.13751 35.6708 0.586548 33.2494 0.218933 30.2502C-0.0582275 27.9654 0.09198 25.6494 0.661865 23.4191C1.81195 18.8661 3.86975 15.2878 6.95264 12.48C7.02942 12.41 7.10724 12.3403 7.18518 12.2708C7.52838 11.9823 7.84467 11.6634 8.13013 11.3181C8.39148 10.9796 8.6925 10.5427 8.69977 10.1663C8.72626 8.75378 8.64362 7.3616 8.55035 6.06866C8.49249 5.2681 8.3999 4.45493 8.31024 3.6683C8.25537 3.18774 8.20068 2.707 8.15308 2.22498C8.04694 1.15475 8.41357 0.619415 9.41852 0.377014C10.0147 0.229553 10.6263 0.153107 11.2406 0.149017L11.2971 0.149017C13.3323 0.166229 15.3999 0.212677 17.4007 0.257599L18.7354 0.287292C20.0308 0.315491 20.5528 0.785065 20.6614 2.01978C20.8516 4.18265 20.9428 5.84332 20.9568 7.40475L20.9588 7.57172C20.97 8.49808 20.9825 9.54303 20.1715 10.4364L21.6807 12.3305C22.8311 13.775 23.9786 15.2148 25.1231 16.6505ZM18.7591 10.7L16.4992 10.8701C16.4961 10.8883 16.4956 10.9068 16.4976 10.9252C16.8306 12.2001 17.1671 13.474 17.5068 14.7467C18.2626 17.5939 19.044 20.538 19.7535 23.4489C20.301 25.6947 20.3185 27.685 19.8064 29.5329C19.5544 30.4422 19.0759 31.1138 18.4223 31.4752C18.1074 31.6394 17.7626 31.7385 17.4083 31.7664C17.054 31.7942 16.6976 31.7503 16.3609 31.6372C16.0925 31.5483 15.8339 31.4322 15.5892 31.2908L15.4888 31.2374C15.3306 31.1536 15.1838 31.0569 15.0284 30.9557L14.9429 30.9C14.9001 30.9534 14.8585 31.0068 14.817 31.0598C14.665 31.2609 14.5029 31.4541 14.3311 31.6387C13.4177 32.5885 12.1035 32.681 11.06 31.8683C10.3538 31.299 9.81848 30.5471 9.51276 29.6953C8.43677 26.9472 8.35687 24.0818 9.27533 21.1791C9.75598 19.66 10.2651 18.1225 10.7583 16.6359C10.9442 16.075 11.1296 15.5139 11.3146 14.9528C11.717 13.6936 11.9524 12.3877 12.0148 11.0679L10.291 11.0679C10.1949 12.3065 9.36823 13.1465 8.56891 13.9598C8.42065 14.11 8.2724 14.2609 8.12854 14.4145C4.82745 17.9303 3.01593 21.6958 2.59082 25.926C2.44434 27.3828 2.33594 28.934 2.53253 30.4068C2.8291 32.6292 4.10297 34.4908 6.42657 36.0981C9.25671 38.0558 12.4041 38.6881 15.7794 37.9774C17.5591 37.6029 19.288 37.1996 20.8787 36.3889C24.9969 34.2895 26.8801 30.636 26.3242 25.8233C25.9409 22.5049 24.4062 19.5788 21.3478 16.3356C20.5449 15.4835 19.648 14.4382 19.0848 13.1451C18.7924 12.4735 18.5076 11.681 18.7591 10.7ZM18.8619 6.58533L18.7676 5.13657L10.2463 5.13657L10.2463 6.84235L18.8619 6.58533ZM18.5981 3.28403L18.5488 2.17084C15.9995 2.05832 13.0603 1.9632 10.1586 2.18362C10.1529 2.22318 10.147 2.26041 10.1422 2.29565C10.1213 2.39966 10.1106 2.50528 10.1104 2.61124C10.1218 2.85825 10.1458 3.10638 10.171 3.36899C10.177 3.42966 10.1829 3.49118 10.1887 3.55331L18.5981 3.28403ZM10.0984 9.62488L10.3414 9.6178C13.2734 9.5322 16.0452 9.45117 18.8795 9.15726L18.9207 8.46002C16.0176 8.29996 13.1077 8.30682 10.2054 8.48102L10.0984 9.62488ZM12.2924 17.0943C12.1855 17.432 12.0781 17.7697 11.9764 18.1084C11.4229 19.9436 10.8904 21.744 10.4627 23.5938C10.0651 25.312 10.2979 27.1304 11.193 29.3166C11.3906 29.7543 11.6731 30.1487 12.0244 30.4773C12.0895 30.5548 12.1703 30.6178 12.2615 30.6621C12.3527 30.7065 12.4522 30.7312 12.5536 30.7347C12.7458 30.7258 12.9449 30.6 13.1455 30.3608C13.6627 29.744 13.6738 29.588 13.2522 28.8449C12.3943 27.3327 12.045 25.88 12.1842 24.404C12.2168 23.9397 12.3257 23.484 12.5065 23.0548C12.5792 22.8386 12.7101 22.6464 12.8849 22.4991C13.0597 22.3518 13.2718 22.2551 13.498 22.2193C13.7241 22.1835 13.9558 22.2103 14.1678 22.2965C14.3798 22.3828 14.564 22.5254 14.7003 22.7086C15.0059 23.0637 15.2454 23.4702 15.4077 23.909C16.0219 25.465 16.1403 27.1713 15.7468 28.7966C15.6227 29.329 16.0009 29.7762 16.785 30.0237C17.1033 30.1242 17.3534 30.1244 17.5279 30.0248C17.6183 29.9618 17.6946 29.8807 17.7518 29.7867C17.8092 29.6927 17.8461 29.5879 17.8602 29.4789C18.058 28.6121 18.3027 27.5334 18.1793 26.5644C17.965 24.8886 17.6004 23.1996 17.2473 21.5663C17.1814 21.2592 17.1157 20.9521 17.0497 20.6452C16.8382 19.6521 16.607 18.6451 16.3833 17.6713C16.0833 16.3634 15.7737 15.011 15.5051 13.6723C15.3916 13.0156 15.3283 12.3515 15.3158 11.6852C15.3036 11.4181 15.2912 11.144 15.2727 10.8632L13.2642 10.9862C13.5375 13.1577 12.9051 15.1583 12.2928 17.0943L12.2924 17.0943ZM13.9946 25.5483L14.111 26.2609C14.1105 26.0188 14.0714 25.7783 13.9951 25.5483L13.9946 25.5483Z" fill-rule="nonzero" fill="#000000"/>
	</g>
</svg>
