<svg width="16.000000" height="16.000000" viewBox="0 0 16 16" fill="none" xmlns="http://www.w3.org/2000/svg">
	<desc>
			Created with Pixso.
	</desc>
	<defs>
		<clipPath id="clip2_122">
			<rect id="calendar" width="16.000000" height="16.000000" fill="white"/>
		</clipPath>
	</defs>
	<g clip-path="url(#clip2_122)">
		<path id="calendar" d="M5 0.5L5 -1.5L3 -1.5L3 0.5L0 0.5C-0.552307 0.5 -1 0.947716 -1 1.5L-1 4.5L17 4.5L17 1.5C17 0.947716 16.5523 0.5 16 0.5L13 0.5L13 -1.5L11 -1.5L11 0.5L5 0.5ZM17 16.5L17 5.5L-1 5.5L-1 16.5C-1 17.0523 -0.552307 17.5 0 17.5L16 17.5C16.5523 17.5 17 17.0523 17 16.5Z" clip-rule="evenodd" fill-rule="evenodd" fill="#323233" fill-opacity="1.000000"/>
	</g>
</svg>
