<svg width="8.000000" height="8.000000" viewBox="0 0 8 8" fill="none" xmlns="http://www.w3.org/2000/svg">
	<desc>
			Created with Pixso.
	</desc>
	<defs/>
	<g opacity="0.000100">
		<rect id="Rectangle" x="0.500000" y="0.500000" width="7.000000" height="7.000000" stroke="#000000" stroke-opacity="1.000000" stroke-width="1.000000"/>
	</g>
	<mask id="mask_3_386" fill="white">
		<path id="形状结合" d="M1.40738 6.5928C1.53757 6.72298 1.74863 6.72298 1.87878 6.5928L4.00009 4.47151L6.12137 6.5928L6.13962 6.60974C6.27057 6.72272 6.46851 6.71706 6.59277 6.5928C6.72296 6.46263 6.72296 6.25157 6.59277 6.1214L4.4715 4.00011L6.59283 1.87875L6.60977 1.86052C6.72275 1.72957 6.7171 1.53162 6.59283 1.40735C6.46265 1.27718 6.25162 1.27718 6.12143 1.40735L4.00009 3.5287L1.87872 1.40735L1.8605 1.39041C1.72952 1.27745 1.53159 1.2831 1.40732 1.40735C1.27716 1.53754 1.27716 1.74858 1.40732 1.87875L3.52869 4.00011L1.40738 6.1214L1.39044 6.13963C1.27747 6.2706 1.28314 6.46855 1.40738 6.5928Z" clip-rule="evenodd" fill="" fill-opacity="1.000000" fill-rule="evenodd"/>
	</mask>
	<path id="形状结合" d="M1.40738 6.5928C1.53757 6.72298 1.74863 6.72298 1.87878 6.5928L4.00009 4.47151L6.12137 6.5928L6.13962 6.60974C6.27057 6.72272 6.46851 6.71706 6.59277 6.5928C6.72296 6.46263 6.72296 6.25157 6.59277 6.1214L4.4715 4.00011L6.59283 1.87875L6.60977 1.86052C6.72275 1.72957 6.7171 1.53162 6.59283 1.40735C6.46265 1.27718 6.25162 1.27718 6.12143 1.40735L4.00009 3.5287L1.87872 1.40735L1.8605 1.39041C1.72952 1.27745 1.53159 1.2831 1.40732 1.40735C1.27716 1.53754 1.27716 1.74858 1.40732 1.87875L3.52869 4.00011L1.40738 6.1214L1.39044 6.13963C1.27747 6.2706 1.28314 6.46855 1.40738 6.5928Z" clip-rule="evenodd" fill="#FFFFFF" fill-opacity="1.000000" fill-rule="evenodd" mask="url(#mask_3_386)"/>
	<path id="形状结合" d="M1.81697 5.71181L1.40738 6.1214L1.39044 6.13963C1.27747 6.2706 1.28314 6.46855 1.40738 6.5928C1.53747 6.72288 1.74832 6.72298 1.8785 6.59309L1.87878 6.5928L1.89592 6.57566L1.89611 6.57548L2.28803 6.18356L3.29297 5.17862L3.76439 4.70721L4.00009 4.47151L4.23579 4.70722L4.70718 5.17862L5.71178 6.18321L6.12137 6.5928L6.13962 6.60974C6.27057 6.72272 6.46851 6.71706 6.59277 6.5928C6.72287 6.46273 6.72296 6.25188 6.59306 6.12169L6.57545 6.10407L6.18354 5.71216L5.17859 4.70721L4.70719 4.23581L4.4715 4.00011L4.7072 3.7644L5.17859 3.293L6.18325 2.28835L6.59283 1.87875L6.60977 1.86052C6.72275 1.72957 6.7171 1.53162 6.59283 1.40735C6.46274 1.27727 6.25192 1.27718 6.12171 1.40707L6.12143 1.40735L6.10429 1.42449L6.1041 1.42468L5.71219 1.81659L4.70719 2.8216L4.23579 3.293L4.00009 3.5287L3.76438 3.293L3.29297 2.82159L2.28832 1.81694L1.87872 1.40735L1.8605 1.39041C1.72952 1.27745 1.53159 1.2831 1.40732 1.40735C1.27725 1.53744 1.27716 1.74828 1.40704 1.87848L1.40732 1.87875L1.40732 1.87876L1.42447 1.89591L1.42464 1.89608L1.81657 2.288L2.82157 3.29299L3.29298 3.76441L3.52869 4.00011L3.29298 4.23581L2.82157 4.70722L1.81697 5.71181Z" clip-rule="evenodd" fill="#000000" fill-opacity="1.000000" fill-rule="evenodd"/>
</svg>
