<svg width="140" height="40" xmlns="http://www.w3.org/2000/svg">
 <g>
  <title>Layer 1</title>
  <text stroke="#e5e5e5" fill="#e5e5e5" x="-2.42514" y="13.44063" id="svg_1" font-size="24" font-family="'Yanone Kaffeesatz'" text-anchor="start" xml:space="preserve" font-weight="bold" transform="rotate(0.871792 39.2772 23.884) matrix(0.678887 0 0 0.745835 4.00162 18.6165)">DJeremy Chen</text>
  <path stroke-width="0" stroke="#e5e5e5" fill="#e5e5e5" d="m114.03303,12.15858c-0.09605,0 -0.14529,-0.11471 -0.14529,-0.25233c0,-0.11451 0.02461,-0.22585 0.09605,-0.22585c0.04922,0 0.12376,0.11134 0.14836,0.22585c0.04923,0.16689 0,0.25233 -0.09914,0.25233l0.00002,0zm16.41378,6.54463c0.2198,0 0.26901,0.02947 0.14563,0.22605c-0.07144,0.13742 -0.21979,0.25213 -0.29126,0.25213c-0.07419,0 -0.14836,-0.11471 -0.14836,-0.25213c0,-0.14101 0.09914,-0.22605 0.29399,-0.22605zm-15.33696,-8.00534c-0.2198,-0.05577 -0.24442,-0.33757 0,-0.42261c0.12375,-0.0261 0.19485,0.05557 0.19485,0.22604c0,0.1408 -0.07111,0.22273 -0.19485,0.19657zm-2.7382,8.90276c0.294,-0.08186 0.294,-0.14081 0.19487,-0.3342c-0.07385,-0.1408 -0.09879,-0.31109 -0.04922,-0.36666c0.02461,-0.08524 0.14835,0 0.21945,0.16689c0.09914,0.22605 0.17299,0.25552 0.36784,0.11472c0.12102,-0.08504 0.2198,-0.14081 0.2198,-0.05577c0,0.05577 0.07419,0 0.17059,-0.11451c0.14836,-0.16689 0.17297,-0.53395 0.02462,-0.73052c-0.12102,-0.1669 -0.73361,-0.11134 -0.90385,0.08504c-0.09844,0.141 -0.17298,0.11153 -0.26903,-0.1406c-0.14803,-0.41944 -0.14803,-0.4782 0.19518,-0.50448c0.294,0 0.294,0 0.04922,-0.17028c-0.12341,-0.08185 -0.24441,-0.25234 -0.24441,-0.36367c0,-0.28181 0.34081,-0.4487 0.48918,-0.25213c0.04922,0.08187 0.14527,0.16689 0.24406,0.16689c0.19521,0 1.12605,-0.95298 1.12605,-1.14956c0,-0.08524 0.09641,-0.14101 0.1952,-0.08524c0.12067,0.02947 0.34048,-0.05577 0.56301,-0.19658c0.31587,-0.22604 0.31587,-0.25233 0.14564,-0.61899c-0.12101,-0.25213 -0.26904,-0.33758 -0.6126,-0.33758c-0.38969,0 -0.48883,0.05577 -0.6095,0.39314c-0.04957,0.22605 -0.19794,0.39314 -0.294,0.39314c-0.17023,0 -0.2198,-0.25213 -0.04957,-0.39314c0.07418,-0.05557 0.12376,-0.25213 0.12376,-0.44871c0,-0.3079 -0.04958,-0.36366 -0.36816,-0.28162c-0.31861,0.05557 -0.31861,0.02929 -0.24443,-0.39314c0.04922,-0.25233 0.12102,-0.47839 0.17023,-0.50448c0.04957,-0.02947 0.09879,-0.2816 0.09879,-0.53394c0,-0.50449 0.14565,-0.58953 0.415,-0.22606c0.12341,0.19659 0.19758,0.22606 0.24442,0.05577c0.04922,-0.11134 0.22221,-0.13761 0.49158,-0.08204c0.36544,0.11152 0.39004,0.08204 0.34047,-0.25216c-0.02461,-0.19656 -0.04921,-0.42242 -0.07418,-0.47818c0,-0.08505 -0.12067,-0.19658 -0.26631,-0.28162c-0.29397,-0.14101 -0.36782,-0.47837 -0.09913,-0.47837c0.07452,0 0.14563,-0.05558 0.14563,-0.16692c0,-0.08511 0.14836,-0.14069 0.34356,-0.11491c0.26904,0.0298 0.41466,-0.08185 0.7825,-0.67104c0.26937,-0.42263 0.46422,-0.64866 0.48918,-0.53395c0.02462,0.14061 0.14802,0.22247 0.26904,0.22247c0.1952,0 0.2198,-0.08186 0.14835,-0.44851c-0.02461,-0.25233 -0.14835,-0.56003 -0.22253,-0.70104c-0.2198,-0.31129 -0.2198,-0.67476 0,-0.56362c0.17299,0.11153 0.7114,-0.19617 0.7114,-0.39294c0,-0.08504 0.07178,-0.14081 0.17023,-0.14081c0.09913,0 0.14565,0.17028 0.14565,0.39314c0,0.2816 0.04922,0.39294 0.17297,0.31109c0.09605,-0.05896 0.17024,-0.22605 0.17024,-0.33739c0,-0.33737 0.78281,-0.92688 0.97767,-0.7598c0.07454,0.05557 0.14837,0 0.17368,-0.19656c0.07111,-0.39314 0.5131,-0.70104 0.7083,-0.50447c0.09879,0.08185 0.19486,0.05557 0.21981,-0.02949c0.04922,-0.11152 0.24442,-0.19656 0.46389,-0.22266c0.2198,-0.02967 0.51379,-0.141 0.63719,-0.25572c0.46423,-0.36346 0.92845,-0.33737 1.12329,0.05577c0.12376,0.28181 0.17299,0.28181 0.17299,0.08524c0,-0.25233 0.0964,-0.28181 0.68437,-0.19657c0.93085,0.11134 1.07647,0.11134 1.41971,-0.02948c0.21979,-0.08185 0.29399,-0.05576 0.29399,0.17028c0,0.14081 0.07143,0.25235 0.17056,0.25235c0.07385,0 0.14496,-0.08185 0.14496,-0.1673c0,-0.22585 0.39313,-0.33717 0.73633,-0.22585c0.26665,0.11134 0.29125,0.1408 0.21981,0.89742c-0.02463,0.4521 0,0.76 0.04683,0.76c0.04921,0 0.09879,-0.19657 0.09879,-0.47818c0,-0.47499 0.26904,-0.67157 0.36818,-0.28182c0.02461,0.14081 0.09571,0.08524 0.14529,-0.13742c0.12341,-0.58971 0.39278,-0.28181 0.3186,0.36367c-0.07418,0.53375 -0.07418,0.53375 0.14563,0.33717c0.12375,-0.08504 0.21981,-0.3079 0.21981,-0.44851c0,-0.14101 0.07418,-0.3081 0.17297,-0.36706c0.19519,-0.11134 0.415,0.31109 0.34355,0.61919c-0.02496,0.14061 -0.02496,0.25213 0.04649,0.25213c0.04957,0 0.09914,-0.08185 0.09914,-0.14081c0,-0.08185 0.12067,-0.11134 0.26904,-0.05577c0.31825,0.08504 0.36507,0.31109 0.09605,0.44871c-0.07144,0.05896 -0.14565,0.19658 -0.14565,0.31129c0,0.19657 0.04958,0.19657 0.3186,0c0.43927,-0.33739 0.63446,-0.31129 0.70863,0.05557c0.04958,0.19656 0.14563,0.2818 0.24443,0.19656c0.09914,-0.02947 0.31859,0.08524 0.48885,0.28182c0.14835,0.16689 0.36818,0.3077 0.46695,0.3077c0.14565,0 0.14565,0.14101 0.09607,0.53415c-0.04922,0.42262 -0.04922,0.47819 0.09879,0.3079c0.19519,-0.27842 0.26938,-0.25233 0.34082,0.14061c0.02461,0.19658 0.19792,0.33758 0.39279,0.42263c0.21945,0.05577 0.34045,0.19656 0.34045,0.36374c0,0.17041 0.07419,0.36666 0.14838,0.478c0.19485,0.19655 0.14563,0.78607 -0.07419,0.98265c-0.07419,0.05895 -0.17059,0.02967 -0.19521,-0.05557c-0.04922,-0.08524 -0.21947,-0.08524 -0.53809,0c-0.51379,0.19638 -0.60986,0.25214 -0.48918,0.50768c0.0742,0.16709 0.9288,0.11134 1.39542,-0.08524c0.14563,-0.08506 0.19485,0 0.19485,0.39314c0,0.28159 -0.04922,0.50446 -0.12341,0.50446c-0.04956,0 -0.09607,0.08524 -0.09607,0.22585c0,0.33759 0.1207,0.3081 0.43964,-0.08504c0.16989,-0.22605 0.26901,-0.28181 0.39003,-0.14081c0.12306,0.14081 0.14836,0.14081 0.14836,-0.08524c0,-0.13763 -0.0499,-0.25213 -0.12375,-0.25213c-0.04683,0 -0.09641,-0.11134 -0.09641,-0.22287c0,-0.14078 0.07179,-0.25212 0.17026,-0.25212c0.07451,0 0.17297,0.05557 0.17297,0.1376c0,0.08525 0.09639,0.19659 0.22014,0.22605c0.16991,0.08504 0.21947,0.19659 0.19485,0.53396c-0.04956,0.64527 0.04922,0.84184 0.41466,0.73052c0.17299,-0.05598 0.26904,0 0.19521,0.11132c-0.02222,0.05557 0,0.19658 0.04922,0.25533c0.19791,0.1673 0.12375,0.56004 -0.09607,0.56004c-0.26938,0 -0.34322,0.14101 -0.19757,0.39314c0.09877,0.14101 0.17297,0.1671 0.26903,0.05576c0.22255,-0.28162 0.26938,-0.05576 0.29401,1.0679c0,0.56343 0.04922,1.01214 0.09842,1.01214c0.12114,0 0.07454,0.61899 -0.09842,0.87132c-0.09641,0.14081 -0.09641,0.27823 -0.02463,0.39294c0.17303,0.25233 0,0.98286 -0.22014,0.98286c-0.19487,0 -0.56303,0.53374 -0.56303,0.78608c0,0.3081 -0.31552,0 -0.39005,-0.33737c-0.07384,-0.3079 -0.07384,-0.3079 -0.12341,-0.08524c-0.04681,0.25552 0.2198,1.04163 0.442,1.26449c0.14563,0.17028 -0.1234,0.45193 -0.3186,0.3374c-0.09879,-0.05577 -0.14563,-0.22285 -0.14563,-0.39317c0,-0.478 -0.61226,-1.68371 -1.07649,-2.13561c-0.24715,-0.22286 -0.46661,-0.47499 -0.46661,-0.56003c0,-0.17048 -0.78282,-0.70124 -1.22244,-0.87154c-0.24477,-0.08524 -0.31859,-0.05556 -0.31859,0.17028c0,0.16711 -0.04649,0.22266 -0.14561,0.16711c-0.21948,-0.11134 -0.31862,0.14101 -0.12376,0.39314c0.26938,0.3079 0.22287,0.67476 -0.07111,0.53395c-0.19792,-0.08524 -0.22255,-0.05577 -0.14836,0.42241c0.02461,0.27842 0.07419,0.64547 0.07419,0.81233c0,0.17032 0.04956,0.28185 0.09879,0.28185c0.07144,0 0.09641,-0.05577 0.04649,-0.14084c-0.02461,-0.08524 0.02495,-0.16727 0.12376,-0.16727c0.07417,0 0.14561,0.11153 0.14561,0.22287c0,0.11472 -0.09639,0.22605 -0.26938,0.19658c-0.14529,0 -0.26903,-0.08187 -0.26903,-0.13763c0,-0.25556 -0.65909,-1.99479 -0.85426,-2.2503c-0.21948,-0.27843 -0.07387,-0.36347 -1.8101,0.95655c-0.26868,0.19657 -0.56268,0.61917 -0.71104,0.92689c-0.12102,0.3079 -0.31622,0.61921 -0.415,0.67496c-0.09879,0.05555 -0.46423,0.50427 -0.78284,0.98269c-1.37047,2.10592 -1.14792,2.35822 -1.05186,6.65913c0.41501,3.25906 0.41501,3.25906 0.41501,3.25906c-0.97803,0 -0.97803,0 -0.97803,0c-0.80745,0 -0.80745,0 -0.80745,0c0.07419,-3.00691 0.07419,-3.00691 0.07419,-3.00691c0.04922,-0.25213 0.07417,-0.75981 0.09879,-1.04164c0.02461,-0.16711 -0.68642,-0.89742 -0.66181,-1.06458c0,-0.14091 0.73598,0.25219 0.73598,0.1114c0.12102,-2.05035 0,-3.68165 -0.3186,-4.54982c-0.07418,-0.53393 -0.68677,-2.25034 -0.78282,-2.25034c-0.02462,0 -0.19759,-0.16689 -0.36784,-0.36346c-0.29398,-0.36686 -0.41464,-0.39314 -2.05482,-0.50467c-1.76051,-0.11452 -1.76051,-0.11452 -1.76051,-0.11452c-0.41705,0.39314 -0.41705,0.39314 -0.41705,0.39314c-0.24443,0.25552 -0.48918,0.42263 -0.56064,0.42263c-0.14835,0 -0.76096,0.5895 -1.02692,0.92689c-0.02496,0 -0.04957,-0.02946 -0.04957,-0.05577c-0.02462,0 -0.02462,0 -0.02462,-0.02927c-0.02496,-0.08205 -0.04957,-0.16729 -0.09913,-0.25235c0.14836,-0.14079 0.26937,-0.22604 0.31894,-0.19656c0.07384,0.05577 0.14564,0 0.14564,-0.14081c0,-0.14081 -0.14564,-0.19657 -0.53602,-0.14081c-0.46697,0.08501 -0.58765,0.11452 -0.66182,0.44868c-0.12102,0.17032 -0.14563,0.42266 -0.07384,0.61923c-0.02529,0.25214 -0.02529,0.42245 0,0.42245c0.02462,0 0.04923,-0.05559 0.12306,-0.11474c0,0.0295 0.02496,0.05916 0.04992,0.08524c-0.24477,0.08506 -0.36851,0.33741 -0.34322,0.58975c-0.12375,0.11449 -0.24477,0.17027 -0.39313,0.2553c0,0 0,-0.02948 -0.02188,-0.02948c0.09606,-0.25212 0.14564,-0.53392 0.17024,-0.95637c0.04957,-0.47498 0.02462,-0.78613 -0.04922,-0.78613c-0.04957,0 -0.09914,0.11456 -0.09914,0.28165c0.02462,0.14103 -0.02188,0.28163 -0.12067,0.30791c-0.07418,0.02927 -0.12375,-0.02628 -0.12375,-0.16688c0,-0.3376 -0.09605,-0.3376 -0.31587,-0.02969c-0.09879,0.11471 -0.29364,0.25213 -0.46388,0.31129c-0.22289,0.08183 -0.29399,0.02607 -0.39311,-0.28162c-0.07384,-0.25235 -0.12343,-0.53415 -0.07384,-0.64549c0.02462,-0.14102 0.02462,-0.25554 -0.07143,-0.25554c-0.26939,0 -0.0742,-0.4487 0.24441,-0.53394l0.00006,0.00008zm2.10373,-6.45937c-0.14837,-0.02948 -0.26938,-0.11135 -0.31861,-0.22605c-0.02461,-0.16709 -0.04921,-0.16709 -0.04921,0c0,0.1147 -0.09914,0.19656 -0.19521,0.22605c-0.17297,0 -0.17297,0.02947 0.02463,0.14101c0.12067,0.05555 0.24442,0.14061 0.26903,0.14061c0.02187,0 0.14564,-0.08504 0.26938,-0.14061c0.21946,-0.14101 0.21946,-0.14101 0,-0.14101zm19.39638,4.52373c0.04684,0.05557 0.09607,-0.02967 0.09607,-0.17048c0,-0.11134 -0.04922,-0.22266 -0.09607,-0.22266c-0.07417,0 -0.12341,0.05557 -0.12341,0.13742c0,0.08524 0.04922,0.19995 0.12341,0.25571zm-0.17296,0.25213c-0.02463,-0.08524 -0.14565,-0.19656 -0.24443,-0.19656c-0.07143,0 -0.12102,0.11132 -0.07143,0.19656c0.02185,0.08504 0.12064,0.14061 0.21944,0.14061c0.09642,0 0.12102,-0.05556 0.09642,-0.14061zm-0.21982,1.26427c0.0742,0 0.173,-0.02947 0.173,-0.05577c0,-0.05896 -0.0988,-0.11451 -0.173,-0.17028c-0.09604,-0.05557 -0.17024,-0.02608 -0.17024,0.05577c0,0.08524 0.0742,0.17028 0.17024,0.17028zm0.19521,-2.66954c0.09877,-0.05577 0.14836,-0.14101 0.1234,-0.22266c-0.07419,-0.19996 -0.48885,-0.19996 -0.48885,0c0,0.22266 0.14565,0.3077 0.36545,0.22266zm-1.34311,-2.10632c-0.12376,0.08524 -0.19792,0.25233 -0.17299,0.33758c0.1234,0.22266 0.26904,0.1669 0.39243,-0.19658c0.12103,-0.33758 0.07181,-0.39314 -0.21945,-0.14101l0.00002,0zm-0.46696,4.32716c0.63721,0.75661 0.66182,0.78608 0.66182,0.53375c0,-0.1408 -0.04921,-0.25532 -0.12376,-0.25532c-0.07109,0 -0.19485,-0.14101 -0.26901,-0.3079c-0.07144,-0.16709 -0.2198,-0.33758 -0.34048,-0.33758c-0.22253,0 -0.22253,0.02968 0.07146,0.36705l-0.00002,0zm-0.51346,-1.32341c0.14801,0 0.21947,-0.05577 0.12306,-0.08186c-0.07384,-0.05557 -0.19484,-0.05557 -0.26869,0c-0.07451,0.02608 0,0.08186 0.14566,0.08186l-0.00003,0zm-0.70865,-3.81931c0.07385,0.08504 0.29364,0.19656 0.48851,0.25234c0.3432,0.08503 0.36816,0.08503 0.17299,-0.14102c-0.22221,-0.27842 -0.83208,-0.36347 -0.6615,-0.11132zm-1.49149,-4.66083c-0.07419,0.08185 -0.09879,0.25213 -0.07419,0.36346c0.04924,0.22605 0.19487,0.02928 0.19487,-0.3079c0,-0.17047 -0.02463,-0.19656 -0.12068,-0.05555l0,-0.00001zm0.73293,6.06629c0.19521,0.14061 0.26938,0.14061 0.36852,-0.05597c0.19485,-0.30791 0.07111,-0.44871 -0.29399,-0.25214c-0.29399,0.13762 -0.29399,0.13762 -0.07454,0.3081l0.00002,0.00001zm-0.48849,-1.40548c0.36818,-0.3077 0.36818,-0.3077 0.07419,-0.3077c-0.19792,0 -0.34355,0.11112 -0.4174,0.3077c-0.04683,0.19656 -0.09639,0.3079 -0.07178,0.3079c0,0 0.19519,-0.1671 0.41499,-0.3079zm-0.53841,4.55301c0.17024,0.3081 0.46423,0.3081 0.36816,-0.02928c-0.02495,-0.11153 -0.04956,-0.25234 -0.04956,-0.28181c0,-0.02629 -0.09879,-0.02629 -0.2198,0.02948c-0.19759,0.05577 -0.19759,0.14081 -0.09879,0.28162l-0.00002,-0.00002zm-0.75821,-1.15294c0.19485,0.3079 0.29399,0.33738 0.51379,0.11134c0.14563,-0.14061 0.14563,-0.14061 0,-0.1669c-0.07419,0 -0.26904,-0.02967 -0.43929,-0.08524c-0.24474,-0.11134 -0.24474,-0.11134 -0.07451,0.1408zm-0.02461,-3.06271c0.12373,0 0.26936,-0.4487 0.19484,-0.5895c-0.09572,-0.14079 -0.29364,0.08504 -0.29364,0.33718c0,0.14101 0.04956,0.25232 0.0988,0.25232zm-1.1975,1.90956c-0.14835,0.11492 -0.12376,0.1412 0.07143,0.1412c0.12376,0 0.26904,-0.05597 0.3186,-0.1412c0.07418,-0.22266 -0.17024,-0.22266 -0.39005,0l0.00002,0zm0.02462,2.47318c0.02188,0.02947 0.09605,-0.02948 0.17058,-0.1671c0.07384,-0.11452 0.29365,-0.25552 0.46389,-0.31109c0.21979,-0.08504 0.31894,-0.22266 0.31894,-0.42262c0,-0.47479 -0.34355,-0.33419 -0.70899,0.28182c-0.14837,0.31108 -0.26904,0.56342 -0.24442,0.61899zm-0.26938,-1.29373c0.2198,-0.30792 0.2198,-0.36368 0.04684,-0.44892c-0.19521,-0.11134 -0.34014,0.141 -0.34014,0.58952c-0.02529,0.33757 -0.02529,0.33757 0.2933,-0.14059zm-0.39243,-3.31506c0.02461,0.22604 0.07384,0.19658 0.21947,-0.22266c0.17296,-0.44872 0.17296,-0.50765 0.0246,-0.50765c-0.09572,0 -0.19485,0.08504 -0.21947,0.22604c-0.04924,0.11113 -0.04924,0.36685 -0.02461,0.50427zm-0.12101,-2.3027c0,0.11452 0.04649,0.39315 0.0964,0.58952c0.07384,0.39315 0.07384,0.39315 0.14836,0.05577c0.09573,-0.33717 0,-0.84184 -0.14836,-0.84184c-0.07178,0 -0.0964,0.08522 -0.0964,0.19655zm-1.71368,0.92688c-0.12101,0.19656 -0.12101,0.39314 -0.02497,0.98267c0.04955,0.42261 0.17331,0.84524 0.24477,0.92709c0.12374,0.14101 0.14837,0 0.17298,-0.87133c0,-1.06431 -0.12376,-1.40189 -0.39278,-1.03843zm0.2198,2.97767c0.02463,0.05574 0.07385,-0.05557 0.04922,-0.22266c0,-0.17048 -0.02461,-0.19658 -0.07384,-0.08504c-0.02221,0.11114 -0.02221,0.25213 0.02461,0.30772l0,-0.00002zm0.88163,-2.6401c-0.02496,0.05556 -0.02496,0.44872 0.04922,0.87133c0.07417,0.73053 0.09641,0.7598 0.12102,0.22603c0.0246,-0.87153 -0.02461,-1.29394 -0.17024,-1.09738l0,0.00002zm-0.83241,7.92361c0.14837,-0.3376 0.39278,-0.90081 0.56301,-1.23818c0.19521,-0.36367 0.3186,-0.84185 0.36817,-1.32003c0.07146,-0.75661 0.07146,-0.75661 0.07146,-0.75661c-0.294,0.41924 -0.294,0.41924 -0.294,0.41924c-0.14564,0.22604 -0.24442,0.47818 -0.24442,0.56342c0,0.22266 -0.46423,1.62793 -0.60986,1.88006c-0.07384,0.1408 -0.19758,0.4521 -0.21946,0.67497c-0.12375,0.64509 0.09605,0.53375 0.36509,-0.22286l0.00001,-0.00002zm-1.73589,2.89243c0.07419,0.56004 0.07419,0.56004 0.3186,-0.64547c0.14565,-0.64846 0.36543,-1.68672 0.51345,-2.3322c0.1952,-0.81557 0.26937,-1.49031 0.26937,-2.44369c0,-1.23798 -0.02461,-1.26427 -0.2198,-1.12326c-0.442,0.36347 -0.68676,1.3756 -0.78522,3.3409c-0.04682,1.01237 -0.0964,2.02453 -0.14563,2.24717c-0.02462,0.22605 0,0.64865 0.04922,0.95655l0.00002,-0.00001zm0.04958,-7.1899c0.09605,0.27823 0.1952,0.50428 0.1952,0.50428c0.02462,0 0.14527,-0.17029 0.24408,-0.39315c0.12376,-0.19637 0.3186,-0.42221 0.39278,-0.50428c0.29124,-0.25552 0.36544,-1.0416 0.121,-1.57556c-0.19518,-0.47816 -0.73324,-1.01233 -0.83239,-0.84185c-0.04924,0.05577 -0.12067,0.58952 -0.17024,1.2087c-0.09878,0.92689 -0.09878,1.20871 0.04958,1.60186zm-0.14837,-6.43336c0.04956,0.05597 0.09878,0.02629 0.09878,-0.05876c0,-0.11152 -0.04922,-0.22286 -0.09878,-0.27842c-0.07418,-0.05916 -0.12068,-0.02949 -0.12068,0.08185c0,0.08504 0.04648,0.19657 0.12068,0.25533zm-7.92402,7.55344c0.34082,0.02948 0.34082,0.02948 0.34082,0.02948c0.34322,0 0.68642,-0.36367 0.68642,-0.67456c0,-0.19676 -0.02463,-0.19676 -1.02725,0.64508l0.00001,0zm0.14563,-0.78609c0,0.08523 0.04957,0.17029 0.12375,0.17029c0.12067,0 0.46389,-0.50428 0.39005,-0.58952c-0.07452,-0.11473 -0.51379,0.25213 -0.51379,0.41924l-0.00001,-0.00001zm0.26937,-1.93585c0.36817,0.56025 0.53841,0.61582 0.73327,0.25215c0.19758,-0.33739 0.02461,-0.56324 -0.56336,-0.64529c-0.4885,-0.08525 -0.4885,-0.08525 -0.16989,0.39314l-0.00002,0zm-0.26937,-1.57556c0,0.05896 0.17332,0.19638 0.36817,0.31108c0.90352,0.53394 1.07649,0.53394 1.05186,0.02629c0,-0.3079 -0.36816,-0.98266 -0.51379,-0.98266c-0.17297,0 -0.90623,0.53393 -0.90623,0.64527l-0.00001,0.00002zm1.32124,3.98959c0.26904,0 0.29398,-0.08504 0.07417,-0.22266c-0.09878,-0.02947 -0.19519,0 -0.2198,0.08205c-0.04957,0.08504 0.02463,0.14061 0.14565,0.14061l-0.00002,0zm0.19519,-6.60007c-0.17058,-0.14101 -0.39039,-0.19676 -0.48918,-0.14101c-0.17024,0.11152 -0.14563,0.14101 0.09879,0.22604c0.12102,0.05576 0.36816,0.11153 0.48918,0.13769c0.14564,0 0.14564,-0.05597 -0.09879,-0.22274l0,0.00002zm-0.02222,1.01182c0.14564,0 0.17024,-0.02929 0.07145,-0.11452c-0.07145,-0.02607 -0.17024,-0.02607 -0.2198,0.02948c-0.02461,0.05577 0.04956,0.11134 0.14835,0.08504zm0.14564,0.64547c-0.34321,0 -0.34321,0.0261 -0.14564,0.25235c0.24442,0.25213 0.31588,0.28143 0.41501,0.11112c0.17023,-0.22245 0.04922,-0.36347 -0.26937,-0.36347zm0.48885,-3.17388c-0.09914,-0.14101 -0.12376,0.11134 -0.07384,0.41923c0.02461,0.19657 0.12307,0.36685 0.17297,0.36685c0.09574,0 0.02461,-0.61919 -0.09912,-0.78608zm0.78284,3.70766c-0.04959,0.02627 0.07417,0.19655 0.21979,0.33755c0.14837,0.14082 0.26904,0.19638 0.26904,0.11135c0,-0.19658 -0.41468,-0.56342 -0.48885,-0.44891l0.00002,0zm-0.61259,0.19655c-0.21948,0.19658 -0.09573,0.70107 0.22251,0.7861c0.17027,0.05576 0.43962,0.2818 0.60987,0.50466c0.14837,0.22586 0.26904,0.3111 0.26904,0.22586c0,-0.28162 -0.97769,-1.63113 -1.10143,-1.51662zm1.00262,2.33238c-0.14564,-0.4521 -0.31587,-0.67476 -0.63447,-0.81576c-0.2444,-0.11134 -0.48918,-0.17028 -0.56301,-0.14061c-0.07453,0.02927 0.21946,0.39294 0.63721,0.81557c0.78283,0.73031 0.78283,0.73031 0.56027,0.14079l0,0.00001zm1.29903,-4.32684c-0.04922,0 -0.09879,0.11101 -0.09879,0.22246c0,0.14089 0.04957,0.22592 0.09879,0.22592c0.07145,0 0.12102,-0.08504 0.12102,-0.22592c0,-0.11145 -0.04957,-0.22246 -0.12102,-0.22246zm-0.22255,2.30259c0,0.19636 0.41774,0.05554 0.58798,-0.19659c0.24408,-0.4226 0.21947,-0.53394 -0.09912,-0.53394c-0.21947,0 -0.48886,0.39315 -0.48886,0.73053zm0.71173,-6.06629c-0.07452,0.36346 -0.12375,0.67136 -0.09912,0.70084c0.07417,0.11154 0.26938,-0.73031 0.26938,-1.0677c0,-0.14081 -0.07453,0.02947 -0.17026,0.36686zm1.27133,5.67313c-0.12341,0 -0.21947,0.05577 -0.21947,0.16711c0,0.08504 0.07146,0.14079 0.14529,0.14079c0.09912,0 0.19485,-0.05576 0.22014,-0.14079c0.04922,-0.11134 -0.02529,-0.16711 -0.14597,-0.16711zm-0.29365,5.28016c0.14564,0.50785 0.3651,0.98266 0.48884,1.09737c0.12376,0.08504 0.36782,0.47818 0.51345,0.87152c0.14563,0.39275 0.29398,0.70086 0.3186,0.70086c0.12102,0 -0.1234,-2.5845 -0.29399,-3.37058c-0.14837,-0.67476 -0.19485,-1.29395 -0.17024,-2.2766c0.02187,-0.73032 0,-1.3758 -0.04922,-1.43156c-0.02462,-0.05557 -0.19485,-0.05557 -0.3432,0c-0.26938,0.11152 -0.29398,0.19656 -0.29398,0.81576c0,0.47499 -0.04958,0.73052 -0.17024,0.84185c-0.34356,0.25213 -0.31895,1.6837 0,2.75141l0,-0.00002zm-0.70899,-3.76355c-0.04922,-0.42262 -0.09845,-0.47817 -0.36782,-0.47817c-0.3186,0 -0.3186,0.02926 -0.29398,0.61899c0,0.36366 0.04955,0.78629 0.07417,0.98265c0.02496,0.19656 0.12103,0.39294 0.21982,0.42263c0.19485,0.14081 0.41466,-0.84186 0.36782,-1.5461zm-0.36782,2.83646c-0.21982,-0.33717 -0.36784,-0.70086 -0.39005,-0.78609c0,-0.11114 -0.12341,-0.39275 -0.26903,-0.64507c-0.14836,-0.25234 -0.3186,-0.56342 -0.39312,-0.67476c-0.24408,-0.39314 -0.19485,-0.05557 0.07453,0.81557c0.17023,0.58952 0.46422,1.12347 0.80743,1.57217c0.63448,0.75999 0.70831,0.61899 0.17025,-0.2818l-0.00001,-0.00001zm-0.39005,1.37918c0.26631,0 0.24442,-0.02948 -0.12341,-0.4784c-0.24477,-0.2816 -0.415,-0.5893 -0.415,-0.73031c0,-0.11134 -0.3186,-0.50765 -0.68644,-0.87133c-0.36543,-0.36686 -0.70865,-0.73031 -0.75819,-0.84185c-0.04957,-0.1408 -0.0742,-0.1408 -0.0742,0.02628c0,0.17028 -0.12066,0.19638 -0.51379,0.11134c-0.26868,-0.05576 -0.4885,-0.05576 -0.4885,-0.02608c0,0.05577 0.09879,0.39294 0.19758,0.73031c0.17059,0.56025 0.24444,0.67497 0.78282,0.89742c0.34048,0.14101 0.87891,0.47838 1.22211,0.73052c0.31861,0.25552 0.70865,0.4521 0.85702,0.4521l0.00001,0zm-3.81775,0.95317c0.09879,0 0.24442,-0.05557 0.34322,-0.14081c0.17059,-0.19658 0.02497,-0.19658 -0.29365,0c-0.14562,0.08524 -0.17023,0.11132 -0.04957,0.14081zm-0.26903,-0.70104c0.24408,-0.11451 1.02724,-0.22605 1.73862,-0.22605c1.34277,-0.02608 1.61217,-0.11114 1.0741,-0.28162c-0.17061,-0.05556 -0.56064,-0.19656 -0.87923,-0.33718c-0.56302,-0.25233 -1.71404,-0.16729 -1.83437,0.11432c-0.02529,0.05597 -0.14835,0.08524 -0.26937,0.05597c-0.24443,-0.08524 -0.48919,0.1408 -0.56302,0.58952c-0.09913,0.36347 0.07385,0.39314 0.73326,0.08504zm-1.9557,0.64548c0.04956,0.22585 0.29399,0.25212 0.48919,0.05556c0.12033,-0.11134 0.12033,-0.1671 0,-0.33738c-0.09914,-0.1671 -0.17059,-0.1671 -0.3186,-0.02628c-0.09914,0.08205 -0.17059,0.22286 -0.17059,0.3081l-0.00001,0zm-0.78249,1.96531c0.09572,0 0.14529,0.08507 0.09572,0.25215c-0.02187,0.11472 -0.09572,0.22606 -0.14562,0.22606c-0.07384,0 -0.12033,-0.11135 -0.12033,-0.22606c0,-0.13743 0.07111,-0.25215 0.17023,-0.25215z" id="svg_4"/>
  <line stroke="#e5e5e5" stroke-width="4" id="svg_2" y2="10" x2="106" y1="9" x1="3" fill="none"/>
 </g>

</svg>
