<svg width="50.000000" height="50.000000" viewBox="0 0 50 50" fill="none" xmlns="http://www.w3.org/2000/svg">
	<desc>
		Created with Pixso.
	</desc>
	<defs>
		<clipPath id="clip392_282">
			<rect id="calendar-minus" width="50.000000" height="50.000000" fill="white" fill-opacity="0"/>
		</clipPath>
	</defs>
	<rect id="calendar-minus" width="50.000000" height="50.000000" fill="#FFFFFF" fill-opacity="0"/>
	<g clip-path="url(#clip392_282)">
		<path id="矢量 130" d="M10.93 0C11.51 0 11.97 0.46 11.97 1.04L11.97 4.68L38.02 4.68L38.02 1.04C38.02 0.46 38.48 0 39.06 0C39.63 0 40.1 0.46 40.1 1.04L40.1 4.68L46.87 4.68C48.6 4.68 50 6.08 50 7.81L50 46.87C50 48.6 48.6 50 46.87 50L3.12 50C1.39 50 0 48.6 0 46.87L0 7.81C0 6.08 1.39 4.68 3.12 4.68L9.89 4.68L9.89 1.04C9.89 0.46 10.36 0 10.93 0ZM3.12 6.77C2.54 6.77 2.08 7.23 2.08 7.81L2.08 13.28L47.91 13.28L47.91 7.81C47.91 7.23 47.45 6.77 46.87 6.77L3.12 6.77ZM47.91 15.36L2.08 15.36L2.08 46.87C2.08 47.45 2.54 47.91 3.12 47.91L46.87 47.91C47.45 47.91 47.91 47.45 47.91 46.87L47.91 15.36ZM16.14 31.51C16.14 30.93 16.61 30.46 17.18 30.46L32.81 30.46C33.38 30.46 33.85 30.93 33.85 31.51C33.85 32.08 33.38 32.55 32.81 32.55L17.18 32.55C16.61 32.55 16.14 32.08 16.14 31.51Z" fill="#000000" fill-opacity="1.000000" fill-rule="evenodd"/>
	</g>
</svg>
