<svg width="24.000000" height="24.000000" viewBox="0 0 24 24" fill="none" xmlns="http://www.w3.org/2000/svg">
	<desc>
			Created with Pixso.
	</desc>
	<defs/>
	<rect id="close" width="24.000000" height="24.000000" fill="#FFFFFF" fill-opacity="0"/>
	<g opacity="0.000100"/>
	<path id="combine" d="M4.22186 19.7782C4.61237 20.1687 5.24554 20.1687 5.63605 19.7782L12 13.4142L18.364 19.7782L18.4187 19.829C18.8116 20.168 19.4054 20.151 19.7782 19.7782C20.1687 19.3877 20.1687 18.7545 19.7782 18.364L13.4142 12L19.7782 5.63611L19.829 5.5813C20.1679 5.18848 20.151 4.5946 19.7782 4.2218C19.3877 3.8313 18.7545 3.8313 18.364 4.2218L12 10.5858L5.63605 4.2218L5.58136 4.17102C5.18848 3.83215 4.5946 3.84912 4.22186 4.2218C3.8313 4.61243 3.8313 5.24548 4.22186 5.63611L10.5858 12L4.22186 18.364L4.17102 18.4187C3.83215 18.8115 3.84906 19.4054 4.22186 19.7782Z" clip-rule="evenodd" fill="#FFFFFF" fill-opacity="1.000000" fill-rule="evenodd"/>
</svg>
