<svg width="16.000000" height="16.000000" viewBox="0 0 16 16" fill="none" xmlns="http://www.w3.org/2000/svg">
	<desc>
			Created with Pixso.
	</desc>
	<defs/>
	<path id="Icon" d="M6.21906 1.25798C6.41309 1.25266 6.78455 1.25 7.33331 1.25L8.66663 1.25C9.21539 1.25 9.58679 1.25266 9.78088 1.25798C10.0942 1.26656 10.3559 1.28749 10.5661 1.32079C10.8887 1.37187 11.2025 1.44891 11.5074 1.55191C11.7772 1.64301 12.0402 1.75441 12.2962 1.88612C12.5538 2.0186 12.7986 2.16864 13.0309 2.33623L13.0309 2.33624L13.0309 2.33624C13.2792 2.51547 13.5131 2.71477 13.7325 2.93413C13.9518 3.1535 14.1512 3.38736 14.3304 3.63571C14.498 3.86795 14.648 4.11285 14.7805 4.37042C14.9122 4.62648 15.0236 4.88939 15.1147 5.15916L15.1147 5.15918C15.2177 5.46419 15.2947 5.77795 15.3458 6.10049C15.3792 6.3107 15.4001 6.57245 15.4086 6.88574C15.4139 7.0798 15.4166 7.45123 15.4166 8C15.4166 8.54877 15.4139 8.92018 15.4086 9.11426C15.4001 9.42755 15.3792 9.6893 15.3458 9.89951C15.2948 10.2219 15.2178 10.5356 15.1148 10.8405L15.1147 10.8408C15.0236 11.1106 14.9122 11.3735 14.7805 11.6296C14.648 11.8871 14.498 12.132 14.3304 12.3642C14.1512 12.6126 13.9519 12.8465 13.7325 13.0659C13.5131 13.2852 13.2792 13.4845 13.0309 13.6638L13.0309 13.6638L13.0308 13.6638L13.0308 13.6638C12.7986 13.8314 12.5537 13.9814 12.2962 14.1139C12.0402 14.2456 11.7772 14.357 11.5074 14.4481C11.2025 14.5511 10.8887 14.6281 10.5661 14.6792C10.3559 14.7125 10.0942 14.7334 9.78088 14.742C9.58685 14.7473 9.21539 14.75 8.66663 14.75L7.33331 14.75C6.78455 14.75 6.41309 14.7473 6.21906 14.742C5.90576 14.7334 5.64398 14.7125 5.43378 14.6792C5.11157 14.6282 4.7981 14.5512 4.49335 14.4484L4.49261 14.4481C4.22278 14.357 3.95984 14.2456 3.70374 14.1139C3.44653 13.9816 3.20203 13.8318 2.97009 13.6646L2.96893 13.6637L2.96887 13.6637C2.72058 13.4845 2.48676 13.2852 2.26746 13.0659C2.04803 12.8465 1.84875 12.6126 1.66949 12.3642L1.66949 12.3642L1.66943 12.3642L1.66943 12.3641C1.50189 12.1319 1.35187 11.8871 1.21942 11.6296C1.08771 11.3735 0.976257 11.1105 0.885193 10.8407L0.885193 10.8407L0.885193 10.8407C0.782166 10.5357 0.705139 10.222 0.654053 9.89951C0.620789 9.6893 0.599854 9.42755 0.591248 9.11426C0.585938 8.92018 0.583313 8.54875 0.583313 8C0.583313 7.45125 0.585938 7.07982 0.591248 6.88574C0.599854 6.57245 0.620789 6.3107 0.654053 6.10051C0.705139 5.77798 0.782227 5.46423 0.885193 5.15926L0.885193 5.15921C0.976318 4.88942 1.08771 4.6265 1.21942 4.37042C1.35181 4.11301 1.50177 3.86824 1.66925 3.63612L1.66943 3.63588C1.84869 3.38747 2.04803 3.15356 2.26746 2.93414C2.48682 2.71477 2.72064 2.51549 2.96899 2.33627L2.96899 2.33626L2.96906 2.33623C3.20123 2.16864 3.44617 2.0186 3.70374 1.88612C3.95978 1.75441 4.22272 1.64301 4.49249 1.5519L4.49255 1.5519L4.49255 1.55188L4.49261 1.55186C4.79755 1.4489 5.11133 1.37187 5.43378 1.32079C5.64398 1.28749 5.90576 1.26656 6.21906 1.25798ZM11.584 4.70934L10.9173 5.15378L10.9122 5.15721C10.6786 5.31291 10.4359 5.44841 10.1838 5.56372C9.96497 5.66389 9.73907 5.74883 9.50623 5.81851C9.2702 5.88918 9.03162 5.94284 8.79041 5.97952C8.52997 6.01913 8.26648 6.03894 8 6.03894C7.73352 6.03894 7.47009 6.01913 7.20966 5.97952C6.96844 5.94284 6.7298 5.88918 6.49377 5.81851C6.26111 5.74887 6.0354 5.664 5.81659 5.56392C5.56445 5.44856 5.32153 5.31299 5.08783 5.15721L5.0827 5.15378L4.41602 4.70934C4.06659 4.47636 3.60895 4.56789 3.37598 4.91736C3.14301 5.26682 3.23456 5.72444 3.58398 5.95741L4.25067 6.40187L4.2558 6.40527C4.5517 6.60257 4.85925 6.77466 5.17841 6.92154C5.46417 7.05307 5.75928 7.1644 6.06366 7.25551C6.36981 7.34717 6.67932 7.4166 6.99219 7.46378C7.32434 7.51389 7.66028 7.53894 8 7.53894C8.33972 7.53894 8.67566 7.51389 9.00781 7.46379C9.32068 7.4166 9.63025 7.34717 9.9364 7.25551C10.2406 7.16446 10.5355 7.05321 10.8212 6.92177C11.1404 6.77483 11.4482 6.60266 11.7443 6.40527L11.7494 6.40186L12.416 5.95741C12.7655 5.72444 12.8571 5.26682 12.6241 4.91736C12.3911 4.56789 11.9335 4.47636 11.584 4.70934Z" clip-rule="evenodd" fill-rule="evenodd" fill="#000000" fill-opacity="1.000000"/>
</svg>
