<svg width="16.000000" height="16.000000" viewBox="0 0 16 16" fill="none" xmlns="http://www.w3.org/2000/svg">
	<desc>
			Created with Pixso.
	</desc>
	<defs/>
	<path id="Fill-4" d="M8.00006 0C3.58234 0 0 3.67232 0 8.20254C0 11.8266 2.29224 14.9013 5.47095 15.9859C5.87073 16.0618 6.01752 15.808 6.01752 15.5913C6.01752 15.3957 6.01013 14.7496 6.00665 14.0642C3.78107 14.5604 3.3114 13.0964 3.3114 13.0964C2.94751 12.1483 2.42316 11.8962 2.42316 11.8962C1.69733 11.3871 2.47784 11.3975 2.47784 11.3975C3.28119 11.4554 3.70422 12.2428 3.70422 12.2428C4.41772 13.4968 5.57574 13.1343 6.03223 12.9247C6.10406 12.3945 6.3114 12.0327 6.54016 11.8279C4.76324 11.6204 2.89532 10.9171 2.89532 7.77412C2.89532 6.87859 3.20782 6.14688 3.7196 5.57245C3.63654 5.36585 3.36267 4.53158 3.79706 3.40174C3.79706 3.40174 4.46887 3.18129 5.99768 4.24253C6.6358 4.06079 7.32019 3.96965 8.00006 3.96652C8.67993 3.96965 9.36487 4.06079 10.0042 4.24253C11.5311 3.18129 12.202 3.40174 12.202 3.40174C12.6375 4.53158 12.3635 5.36585 12.2804 5.57245C12.7934 6.14688 13.1038 6.87859 13.1038 7.77412C13.1038 10.9246 11.2322 11.6183 9.45081 11.8213C9.73779 12.0759 9.99347 12.5751 9.99347 13.3403C9.99347 14.4378 9.98419 15.3212 9.98419 15.5913C9.98419 15.8096 10.1282 16.0654 10.5337 15.9848C13.7106 14.899 16 11.8254 16 8.20254C16 3.67232 12.4182 0 8.00006 0Z" fill-rule="evenodd" fill="#161514"/>
	<path id="Fill-5" d="M3.05359 11.7208C3.03601 11.7611 2.97357 11.7732 2.91669 11.7455C2.85883 11.719 2.82629 11.664 2.84503 11.6236C2.86224 11.582 2.9248 11.5704 2.98254 11.5983C3.04059 11.6248 3.07367 11.6803 3.05359 11.7208Z" fill-rule="evenodd" fill="#161514"/>
	<path id="Fill-6" d="M3.37708 12.0877C3.33899 12.1236 3.26453 12.1069 3.21399 12.0502C3.1618 11.9935 3.15198 11.9178 3.19061 11.8814C3.22986 11.8455 3.30206 11.8623 3.35443 11.9189C3.40668 11.9762 3.41687 12.0514 3.37708 12.0877Z" fill-rule="evenodd" fill="#161514"/>
	<path id="Fill-7" d="M3.69189 12.5554C3.64294 12.59 3.56293 12.5575 3.51349 12.4853C3.46454 12.4131 3.46454 12.3265 3.51453 12.2918C3.56415 12.2571 3.64294 12.2883 3.69305 12.36C3.74188 12.4334 3.74188 12.52 3.69189 12.5554Z" fill-rule="evenodd" fill="#161514"/>
	<path id="Fill-8" d="M4.12323 13.0073C4.07947 13.0564 3.98621 13.0432 3.91797 12.9762C3.84814 12.9107 3.82874 12.8178 3.87262 12.7687C3.91693 12.7195 4.01068 12.7334 4.07947 12.7998C4.14874 12.8652 4.16986 12.9588 4.12323 13.0073Z" fill-rule="evenodd" fill="#161514"/>
	<path id="Fill-9" d="M4.71832 13.2697C4.69897 13.3333 4.60919 13.3622 4.51874 13.3352C4.42847 13.3073 4.36932 13.2328 4.38757 13.1685C4.40637 13.1045 4.49652 13.0744 4.58765 13.1033C4.67786 13.131 4.73706 13.205 4.71832 13.2697Z" fill-rule="evenodd" fill="#161514"/>
	<path id="Fill-10" d="M5.37183 13.3184C5.37408 13.3853 5.29736 13.4409 5.20245 13.4421C5.10699 13.4442 5.02972 13.39 5.02869 13.3242C5.02869 13.2565 5.10364 13.2015 5.19916 13.1999C5.29407 13.198 5.37183 13.2518 5.37183 13.3184Z" fill-rule="evenodd" fill="#161514"/>
	<path id="Fill-11" d="M5.97986 13.2131C5.99121 13.2785 5.92523 13.3456 5.83099 13.3635C5.73828 13.3807 5.65247 13.3403 5.64069 13.2755C5.62921 13.2085 5.69635 13.1414 5.78894 13.1241C5.88336 13.1074 5.96783 13.1467 5.97986 13.2131Z" fill-rule="evenodd" fill="#161514"/>
</svg>
