<svg width="21.499893" height="21.499893" viewBox="0 0 21.4999 21.4999" fill="none" xmlns="http://www.w3.org/2000/svg">
	<desc>
			Created with Pixso.
	</desc>
	<defs/>
	<path id="Vector" d="M16.7164 5.30801C19.4054 7.99699 20.7499 9.34149 20.7499 11.0122C20.7499 12.6829 19.4054 14.0274 16.7164 16.7164C14.0274 19.4054 12.6829 20.7499 11.0122 20.7499C9.34149 20.7499 7.99699 19.4054 5.30801 16.7164L3.47838 14.8868C1.93285 13.3412 1.16008 12.5685 0.872528 11.5659C0.584991 10.5633 0.830734 9.49838 1.3222 7.36865L1.60564 6.14046C2.01912 4.34869 2.22586 3.45282 2.83934 2.83934C3.45282 2.22586 4.34869 2.01912 6.14046 1.60564L7.36865 1.3222C9.49838 0.830734 10.5633 0.584991 11.5659 0.872528C12.5685 1.16008 13.3412 1.93285 14.8868 3.47838L16.7164 5.30801ZM8.77116 9.04314C7.99011 9.82417 6.72379 9.82417 5.94273 9.04314C5.16168 8.26208 5.16168 6.99576 5.94273 6.21471C6.72379 5.43365 7.99011 5.43365 8.77116 6.21471C9.5522 6.99576 9.5522 8.26208 8.77116 9.04314ZM10.2916 17.2496L17.2706 10.2704" stroke="#1C274C" stroke-opacity="1.000000" stroke-width="1.500000" stroke-linecap="round"/>
</svg>
