<svg width="16.000000" height="16.000000" viewBox="0 0 16 16" fill="none" xmlns="http://www.w3.org/2000/svg">
	<desc>
			Created with Pixso.
	</desc>
	<defs>
		<clipPath id="clip2_36">
			<rect id="Telegram-fill" width="16.000000" height="16.000000" fill="white"/>
		</clipPath>
	</defs>
	<g clip-path="url(#clip2_36)">
		<path id="Subtract" d="M8 16C12.4183 16 16 12.4183 16 8C16 3.58173 12.4183 0 8 0C3.58173 0 0 3.58173 0 8C0 12.4183 3.58173 16 8 16ZM8.28687 5.90593C7.50873 6.22958 5.95355 6.89944 3.6214 7.91553C3.24274 8.06612 3.04431 8.21346 3.02625 8.35751C2.99573 8.60098 3.30066 8.69684 3.71582 8.82739C3.77228 8.84515 3.83081 8.86355 3.89081 8.88305C4.29926 9.01582 4.84869 9.17116 5.13434 9.17733C5.39343 9.18292 5.68262 9.07611 6.00189 8.85687C8.18091 7.38598 9.30573 6.64252 9.37634 6.62649C9.42621 6.61518 9.49524 6.60096 9.54199 6.64254C9.58881 6.68411 9.58417 6.76286 9.57922 6.78398C9.53961 6.95287 7.49268 8.81471 7.37488 8.93707C7.31213 9.0022 7.24823 9.06383 7.18683 9.12305C6.80731 9.48886 6.52277 9.76319 7.20258 10.2112C7.88605 10.6616 8.28381 10.9489 8.98792 11.4104C9.08154 11.4718 9.17096 11.5356 9.25806 11.5977C9.58954 11.834 9.88733 12.0462 10.2552 12.0124C10.469 11.9927 10.6898 11.7917 10.8019 11.1922C11.067 9.77541 11.5879 6.70561 11.7083 5.44063C11.7189 5.3298 11.7056 5.18796 11.6949 5.12569C11.6843 5.06343 11.662 4.97472 11.5811 4.90904C11.4852 4.83127 11.3372 4.81487 11.2711 4.81603C10.9702 4.82133 10.5085 4.98185 8.28687 5.90593Z" clip-rule="evenodd" fill-rule="evenodd" fill="#000" fill-opacity="1.000000"/>
	</g>
</svg>
